HIERARCHY
ROOT Hips
{
  OFFSET -187.679 86.5976 -156.378
  CHANNELS 6 Xposition Yposition Zposition Zrotation Xrotation Yrotation
  JOINT LeftUpLeg
  {
    OFFSET 8.64259 1.95398 -2.38835
    CHANNELS 3 Zrotation Xrotation Yrotation
    JOINT LeftLeg
    {
      OFFSET 43.7702 0 0
      CHANNELS 3 Zrotation Xrotation Yrotation
      JOINT LeftFoot
      {
        OFFSET 40.6238 0 0
        CHANNELS 3 Zrotation Xrotation Yrotation
        JOINT LeftToeBase
        {
          OFFSET 12.7242 0 0
          CHANNELS 3 Zrotation Xrotation Yrotation
          End Site
          {
            OFFSET 0 0 0
          }
        }
      }
    }
  }
  JOINT RightUpLeg
  {
    OFFSET -8.2249 1.95398 -2.59336
    CHANNELS 3 Zrotation Xrotation Yrotation
    JOINT RightLeg
    {
      OFFSET 43.5653 0 0
      CHANNELS 3 Zrotation Xrotation Yrotation
      JOINT RightFoot
      {
        OFFSET 40.6238 0 0
        CHANNELS 3 Zrotation Xrotation Yrotation
        JOINT RightToeBase
        {
          OFFSET 12.7242 0 0
          CHANNELS 3 Zrotation Xrotation Yrotation
          End Site
          {
            OFFSET 0 0 0
          }
        }
      }
    }
  }
  JOINT Spine
  {
    OFFSET 0.165834 0.87714 6.61349
    CHANNELS 3 Zrotation Xrotation Yrotation
    JOINT Spine1
    {
      OFFSET 7.38963 1.71661e-005 0
      CHANNELS 3 Zrotation Xrotation Yrotation
      JOINT Spine2
      {
        OFFSET 11.9445 1.14441e-005 0
        CHANNELS 3 Zrotation Xrotation Yrotation
        JOINT Spine3
        {
          OFFSET 14.7254 4.19617e-005 0
          CHANNELS 3 Zrotation Xrotation Yrotation
          JOINT Spine4
          {
            OFFSET 10.9679 0 0
            CHANNELS 3 Zrotation Xrotation Yrotation
            JOINT RightShoulder
            {
              OFFSET 2.46616 -1.6653 3.69651
              CHANNELS 3 Zrotation Xrotation Yrotation
              JOINT RightArm
              {
                OFFSET 13.0012 0 0
                CHANNELS 3 Zrotation Xrotation Yrotation
                JOINT RightForeArm
                {
                  OFFSET 28.7848 1.52588e-005 0
                  CHANNELS 3 Zrotation Xrotation Yrotation
                  JOINT RightHand
                  {
                    OFFSET 26.5688 1.52588e-005 0
                    CHANNELS 3 Zrotation Xrotation Yrotation
                    End Site
                    {
                      OFFSET 0 0 0
                    }
                  }
                }
              }
            }
            JOINT LeftShoulder
            {
              OFFSET 2.38034 -1.29275 -3.7523
              CHANNELS 3 Zrotation Xrotation Yrotation
              JOINT LeftArm
              {
                OFFSET 16.3182 6.10352e-005 0
                CHANNELS 3 Zrotation Xrotation Yrotation
                JOINT LeftForeArm
                {
                  OFFSET 27.0901 0 0
                  CHANNELS 3 Zrotation Xrotation Yrotation
                  JOINT LeftHand
                  {
                    OFFSET 24.5451 1.52588e-005 0
                    CHANNELS 3 Zrotation Xrotation Yrotation
                    End Site
                    {
                      OFFSET 0 0 0
                    }
                  }
                }
              }
            }
            JOINT Neck
            {
              OFFSET 5.0226 -0.0266342 0
              CHANNELS 3 Zrotation Xrotation Yrotation
              JOINT Head
              {
                OFFSET 6.69363 2.86102e-005 0
                CHANNELS 3 Zrotation Xrotation Yrotation
                End Site
                {
                  OFFSET 0 0 0
                }
              }
            }
          }
        }
      }
    }
  }
}
MOTION
Frames:	11
Frame Time:	0.0416667
7.66858 70.9918 -29.1549 83.2449 45.4386 94.6452 -167.348 63.2928 87.0857 -105.161 21.3962 4.5296 91.628 17.0176 2.58447 26.7825 1.35302 -6.33568 167.143 42.4136 102.544 -101.761 20.3461 -1.84887 104.441 -13.7801 3.15501 41.0598 1.5331 1.74253 0.272227 10.57 -89.4051 5.72834 0.792685 1.14837 -5.94283 0.842448 1.11236 -28.4746 0.410939 1.33348 -8.46196 0.410931 1.33348 89.1179 -35.6853 -106.178 -8.063 12.2357 -69.0254 -47.434 -11.4553 -68.2865 -20.7314 -1.91405 5.70706 -91.2769 -26.2183 69.5898 3.90719 -10.575 -77.4667 42.7527 28.5309 -47.6209 27.079 3.47626 9.31005 25.8844 -0.273974 -3.6507 11.0842 1.24968 1.62702 
13.2533 74.1599 -34.9665 79.6054 46.3134 96.5454 -168.473 55.3987 88.3585 -100.48 20.1816 4.09984 96.6583 18.2899 -0.311345 28.822 2.35225 -7.47173 168.24 40.2805 101.172 -99.9726 15.7497 -2.0816 91.5298 -11.2872 -3.14079 46.2797 1.82302 6.15166 0.350341 10.2071 -89.3107 6.45203 0.992415 1.32168 -5.21916 1.04961 1.27673 -27.7501 0.549357 1.5588 -7.73745 0.549369 1.55879 89.7085 -34.6989 -105.437 -1.23498 17.7307 -66.3337 -49.0013 -6.94005 -76.7508 -20.5564 -2.62148 9.77964 -90.6783 -26.169 70.7496 4.88766 -12.7065 -80.2653 48.3509 25.2381 -55.1915 24.7528 2.83596 7.90101 25.8151 -1.26304 -4.556 12.0612 0.686349 1.91892 
19.4277 77.3854 -41.2475 78.2104 46.9054 97.269 -169.333 45.3405 89.947 -93.9958 20.0019 3.70047 98.5132 19.3309 -0.275372 33.0203 3.65236 -7.65101 170.272 40.4606 100.298 -101.18 12.5443 -2.65642 74.5504 -5.43167 -2.88165 38.6637 -0.193082 8.28147 0.236256 10.0254 -89.2372 6.81536 0.797943 1.47057 -4.85613 0.861895 1.43402 -27.3851 0.319164 1.64235 -7.37245 0.319162 1.64235 89.1235 -36.01 -106.056 1.25316 19.8738 -59.8324 -46.1374 -1.0483 -88.6551 -19.3778 -2.785 11.6905 -89.9163 -27.4784 72.7735 9.36386 -15.1755 -80.1768 49.6209 18.2901 -60.6107 25.0467 2.92084 8.11841 26.9478 -1.41891 -5.282 11.8129 0.726836 0.995414 
26.029 80.5369 -47.8773 76.3724 47.3454 99.305 -169.933 36.3865 92.4167 -86.5088 22.1092 3.69928 94.9922 18.5537 1.61478 40.8336 6.22161 -9.28552 171.626 41.9301 101.259 -102.493 7.44693 -3.14106 70.5821 -4.2483 -3.21791 22.3725 -3.35675 6.79207 0.0271215 9.74831 -89.2225 7.37199 0.390266 1.51437 -4.29975 0.45654 1.49573 -26.8278 -0.0828453 1.56164 -6.81518 -0.0828425 1.56164 86.6505 -41.3526 -108.487 -3.1746 16.9151 -44.548 -46.1133 11.3462 -100.481 -15.7079 -2.45701 13.3124 -89.17 -26.4603 73.8777 12.2142 -17.6545 -79.7484 53.0885 12.9375 -66.9145 22.5467 3.02805 9.80954 26.3842 -1.75319 -8.63898 12.8795 1.73137 1.8928 
33.0474 83.2182 -54.6044 72.6385 48.1848 102.222 -170.281 28.2171 93.9962 -77.2218 24.303 3.74014 90.8609 16.9059 2.59096 46.0188 7.63897 -9.4688 170.857 45.0193 103.05 -98.887 12.8935 -2.37041 78.16 -6.24061 -2.78546 27.8789 -2.02788 6.36677 -0.316023 9.29662 -89.2824 8.28043 -0.314824 1.43727 -3.39128 -0.251299 1.44972 -25.9215 -0.732203 1.27624 -5.90882 -0.732211 1.27624 85.13 -45.9372 -109.354 -5.90533 6.01415 -26.369 -41.4452 18.702 -110.48 -12.1598 -1.66924 11.2423 -88.0545 -24.5656 75.473 10.5153 -19.5702 -81.9244 57.4073 9.03086 -73.6688 21.9798 3.11207 10.5588 26.5804 -1.64182 -9.49954 12.3655 2.19118 2.1294 
40.0572 85.6773 -62.1152 71.776 47.5038 104.919 -169.469 17.6969 97.1544 -65.3829 26.0104 3.98283 84.5886 14.2974 4.47111 52.5662 9.51686 -11.3979 170.821 49.3307 105.336 -92.2924 15.0293 -1.21569 81.6851 -6.98174 -1.20014 27.6907 -1.56524 4.67669 -0.445285 9.04164 -89.682 8.79446 -0.747001 0.677341 -2.87643 -0.716454 0.709551 -25.4129 -0.916028 0.421512 -5.40023 -0.91602 0.421512 86.7298 -45.3271 -107.018 0.675046 -9.92055 -8.77718 -42.2758 24.0064 -112.535 -11.7647 -1.54678 10.5643 -87.1187 -23.1583 76.9511 8.20832 -20.6466 -84.0196 58.155 4.72134 -77.409 18.8763 2.36333 8.84878 28.3598 -0.399207 -6.8126 10.5891 2.25276 0.462498 
47.3891 87.8925 -70.2526 72.9897 46.3108 105.761 -167.895 5.28695 99.8837 -50.8508 30.5361 4.78931 74.0097 9.10195 6.10317 62.2625 11.7108 -13.1246 171.661 53.2197 105.863 -82.5429 11.6914 -0.0439644 83.8128 -7.70126 -1.52683 26.7701 -2.16505 6.03302 -0.505818 8.95722 -90.1506 8.95753 -1.07612 -0.223415 -2.713 -1.08491 -0.175843 -25.2509 -0.959222 -0.536539 -5.23823 -0.959219 -0.536539 87.3881 -43.3783 -106.587 15.3775 -18.3824 10.737 -44.5203 23.3592 -107.263 -13.4673 -1.67688 9.74592 -87.1113 -23.6562 77.1374 7.27293 -19.8408 -84.445 58.4605 3.00335 -78.6297 18.6719 2.78452 11.1866 31.1374 1.79273 -2.94675 7.75507 2.78812 -0.99091 
55.0666 89.6055 -78.6791 74.4668 44.0743 105.785 -167.629 -5.58063 100.321 -39.5978 34.4066 7.1413 61.2061 2.18897 5.75134 54.841 10.1277 -11.8981 173.021 56.558 105.311 -69.7825 4.86892 1.07144 79.0213 -6.36236 -1.90773 25.2476 -2.15304 4.99316 -0.679096 8.79638 -90.2702 9.27794 -1.47538 -0.42773 -2.39223 -1.4928 -0.362382 -24.9321 -1.27863 -0.851426 -4.91942 -1.27862 -0.851431 81.9956 -46.2345 -114.126 24.15 -14.7657 26.1576 -44.3307 17.1215 -99.966 -16.3875 -1.98278 9.15698 -86.3988 -24.2402 78.8061 5.63124 -14.222 -82.8066 59.5757 3.50706 -78.7925 17.2463 2.41257 10.2084 33.0658 4.23414 -2.2297 4.31821 4.79872 -2.19481 
62.7383 89.8959 -86.887 76.0895 42.2468 105.163 -170.391 -12.3235 97.9616 -40.0969 36.447 11.953 56.2309 -0.69845 2.47276 19.4999 -2.51438 -2.73173 174.156 57.8298 104.406 -56.8366 -0.876536 2.19261 74.3277 -5.09425 -1.61088 21.8939 -2.68743 4.54344 -0.682714 8.79927 -90.5257 9.26836 -1.59714 -0.925361 -2.4019 -1.63633 -0.854162 -24.9397 -1.24523 -1.36259 -4.927 -1.24522 -1.3626 80.9865 -46.6343 -115.532 27.2089 -10.2427 29.3625 -48.6347 10.1218 -91.6122 -19.713 -2.55286 10.0314 -88.1188 -26.5073 76.0008 3.97379 -6.19639 -79.3015 62.677 6.00306 -76.2488 13.5063 1.61411 7.96322 35.0189 6.07262 -0.725252 2.70311 5.91691 -2.54212 
70.8846 88.4493 -94.9294 80.7067 40.6029 102.839 -172.638 -16.584 95.5957 -50.9223 32.932 14.3508 57.9762 0.498093 5.35047 26.1003 0.314552 -3.8991 174.706 54.9717 105.295 -50.4083 0.248063 3.25454 70.0561 -3.57925 -0.564433 23.002 -2.00345 3.27786 -0.586871 8.95541 -90.6686 8.95376 -1.46873 -1.22283 -2.71687 -1.52109 -1.157 -25.2512 -1.03335 -1.60765 -5.23851 -1.03336 -1.60766 79.6445 -48.2738 -116.89 26.2615 -6.13289 26.3908 -48.6207 2.01081 -83.3932 -21.0554 -2.57112 9.12782 -89.7749 -31.6075 74.4755 3.84485 2.81334 -75.4481 62.4263 10.5242 -72.1872 15.8155 2.06301 9.20905 33.6048 7.0375 -0.544451 3.70116 6.75166 -2.08722 
78.802 86.3234 -102.695 85.0147 40.896 99.128 -173.589 -14.6619 93.8478 -67.0206 30.3707 14.1705 58.769 0.577964 5.42962 30.4187 2.22914 -5.41803 170.947 53.148 106.087 -59.17 -0.773533 4.0019 62.9462 -0.894475 -4.15776 18.5165 -2.24119 1.54741 -0.54055 8.92009 -90.6935 9.02342 -1.38769 -1.2768 -2.64738 -1.44254 -1.2145 -25.1805 -0.939861 -1.63477 -5.16786 -0.939874 -1.63477 81.0509 -49.4001 -114.328 25.4244 -5.00275 19.8517 -50.409 -6.43277 -75.9036 -22.1459 -2.74301 9.3136 -92.8873 -37.423 70.9118 2.70907 13.3412 -67.3055 59.644 14.2719 -67.2346 14.453 1.60844 6.64056 29.2228 7.1754 1.4859 5.99783 6.03043 -2.67612 
